<svg xmlns="http://www.w3.org/2000/svg" xmlns:xlink="http://www.w3.org/1999/xlink" xml:space="preserve" width="1024" height="1024" viewBox="0 0 270.933 270.933"><defs><linearGradient id="c"><stop offset=".137" style="stop-color:#00b9e7;stop-opacity:1"/><stop offset="1" style="stop-color:#146e8b;stop-opacity:1"/></linearGradient><linearGradient id="a"><stop offset="0" style="stop-color:#094a29;stop-opacity:1"/><stop offset="1" style="stop-color:#137a4a;stop-opacity:1"/></linearGradient><linearGradient id="b"><stop offset=".542" style="stop-color:#094a29;stop-opacity:1"/><stop offset=".983" style="stop-color:#137a4a;stop-opacity:1"/></linearGradient><linearGradient xlink:href="#a" id="j" x1="46.747" x2="23.308" y1="201.24" y2="64.527" gradientUnits="userSpaceOnUse"/><linearGradient xlink:href="#c" id="h" x1="106.92" x2="134.959" y1="252.247" y2="135.695" gradientUnits="userSpaceOnUse"/><linearGradient xlink:href="#e" id="i" x1="192.825" x2="60.807" y1="186.664" y2="49.446" gradientUnits="userSpaceOnUse"/><linearGradient id="e"><stop offset=".137" style="stop-color:#d7eef4;stop-opacity:0"/><stop offset="1" style="stop-color:#d7eef4;stop-opacity:.32810229"/></linearGradient><radialGradient xlink:href="#b" id="g" cx="149.527" cy="185.53" r="112.94" fx="149.527" fy="185.53" gradientTransform="matrix(-1.37511 -.28998 .19049 -.9033 299.04 358.867)" gradientUnits="userSpaceOnUse"/><clipPath id="f" clipPathUnits="userSpaceOnUse"><use xlink:href="#d"/></clipPath></defs><g clip-path="url(#f)" transform="translate(-9.538 -9.538)scale(1.07041)"><path id="d" d="m39.276 25.931 89.829-51.862a22 22 180 0 1 21.997 0l89.829 51.862a22 22 60 0 1 10.998 19.05v103.726a22 22 120 0 1-10.998 19.05l-89.829 51.862a22 22 180 0 1-21.997 0l-89.829-51.862a22 22 60 0 1-10.998-19.05V44.98a22 22 120 0 1 10.998-19.05" style="fill:none;stroke:none;stroke-width:.265;stroke-linecap:butt;stroke-linejoin:miter;stroke-dasharray:none;stroke-opacity:1" transform="translate(-4.637 38.623)"/><path d="m135.467 6.341 111.825 64.563V200.03l-111.825 64.563L23.64 200.029V70.904z" style="display:inline;fill:#c0e3ef;fill-opacity:1;stroke:none;stroke-width:.264583px;stroke-linecap:butt;stroke-linejoin:miter;stroke-opacity:1"/><path d="M247.292 71.772c-111.825-65.43-223.651-.868-223.651-.868l111.826 193.688 114.054-63.695.963-72.636" style="display:inline;fill:url(#g);stroke:none;stroke-width:.264583px;stroke-linecap:butt;stroke-linejoin:miter;stroke-opacity:1"/><path d="M135.467 264.592s51.662-39.926 69.27-94.699c8.915-27.734-40.458-68.003-83.333-63.014-72.55 8.444-97.763-3.917-97.763-3.917v97.067z" style="display:inline;opacity:1;fill:url(#h);fill-opacity:1;stroke:none;stroke-width:.264583px;stroke-linecap:butt;stroke-linejoin:miter;stroke-opacity:1"/><path d="M135.062 62.147c-4.676.06-7.359.636-12.462 2.676-8.866 3.542-16.94 11.913-21.572 22.364-3.448 7.78-5.294 17.067-5.247 26.41l.009 1.859c.724 8.282 1.92 16.141 4.202 23.193.02-.014 0 0 0 0 .013.013.217.578.453 1.254 3.183 9.115 8.665 18.87 14.84 26.511 6.889-3.545 13.096-7.523 17.975-12.475-3.663-4.337-7.363-10.122-9.855-15.495-1.334-2.878-3.276-7.963-3.42-8.958 0-.009-.005.01 0 0-2.16-7.453-2.715-15.18-2.076-22.053l.009-.049c-.01-.1.165-.986.322-1.922 1.46-8.71 5.016-15.308 10.357-19.224 1.096-.803 3.406-1.808 4.974-2.163.397-.09 1.24-.135 2.084-.135s1.689.045 2.089.135c1.637.368 3.853 1.333 5.02 2.186 4.916 3.596 8.431 9.765 9.987 17.4 8.133 1.569 15.982 4.38 22.781 7.816-.085-2.42-.309-5.289-.608-7.432-1.623-11.596-5.62-21.183-11.862-28.442-4.654-5.412-9.5-8.963-15.167-11.111-5.025-1.906-7.786-2.41-12.834-2.345zm-.36 43.64c-4.642.045-9.009.406-13.298 1.092-.307 7.74.095 15.1 1.993 21.786a70.3 70.3 0 0 1 12.007-1.077 70 70 0 0 1 12 .991c1.972.337 3.965.767 3.938.849l-.021.07c7.48 1.872 14.386 5.216 19.98 9.19l-.007.049c.044-.103.073-.135.104-.108.034.03.347.276.695.549 7.034 5.508 11.231 11.883 12.246 18.602.287 1.901-.05 4.98-.713 6.492-1.05 2.397-2.336 3.905-4.716 5.534-1.94 1.327-5.067 2.301-8.475 2.64-3.536.351-7.702-.138-11.922-1.4a42 42 0 0 1-1.215-.386c-5.428 6.253-11.803 11.64-18.207 15.816 2.652 1.422 5.778 2.861 8.488 3.872 6.636 2.475 12.356 3.71 18.46 3.987 9.947.45 20.45-2.558 26.786-7.671 3.314-2.675 4.477-3.776 6.062-5.743 1.11-1.377 1.625-2.17 3.42-5.272 2.001-3.455 3.304-7.891 3.819-13.005.45-4.465-.03-8.857-1.517-13.893-.257-.87-.476-1.617-.487-1.658-.24-.92-1.547-4.102-2.37-5.775-3.917-7.948-10.725-15.6-19.146-21.514-2.03-1.427-4.743-3.103-9.683-5.54-4.94-2.438-12.332-5.288-15.963-6.024-3.63-.737-3.904-.795-4.221-.864-3.457-.75-9.286-1.407-13.692-1.542a111 111 0 0 0-4.346-.047zM92.344 117.44c-7.068 4.328-13.695 10.264-18.182 16.353-6.817 9.252-10.115 20.352-8.855 29.804.828 6.21 2.119 9.775 5.403 14.915 2.988 4.674 8.356 9.267 13.88 11.874 4.83 2.28 11.25 3.776 16.998 3.96 10.68.343 22.876-3.073 33.083-9.264l.975-.591c.002 0 .043.025.052.028 6.856-4.73 13.05-9.698 18.043-15.19l-.112-.05.273-.307c6.448-7.28 12.623-17.605 16.202-26.933-6.542-4.152-13.112-7.503-19.847-9.225-2.792 7.846-8.025 16.626-13.69 22.81-.301.328-.63.677-.732.776l-2.913 2.976c-2.728 2.797-8.986 7.078-15.24 9.906.014.018 0-.003 0 0 0 .026-.779.343-1.825.742-3.52 1.34-7.442 2.237-10.748 2.457-3.95.262-7.635-.305-10.89-1.676-1.361-.574-2.79-1.578-4.212-2.96-.803-.782-1.785-2.315-2.368-3.7-.47-1.12-.893-4.096-.767-5.41.602-6.268 4.073-12.298 10.161-17.693-2.727-7.808-4.24-15.998-4.689-23.602" style="display:inline;mix-blend-mode:normal;fill:#fff;stroke-width:.0372549"/><path d="m23.64 200.03.001-129.126L135.467 6.341 249.52 71.772v129.125l-114.054 63.695z" style="display:inline;mix-blend-mode:hard-light;fill:url(#i);fill-opacity:1;stroke:none;stroke-width:.264583px;stroke-linecap:butt;stroke-linejoin:miter;stroke-opacity:1"/><path d="M23.64 200.03s33.772-15.003 43.545-52.922c0 0-8.311-42.974-43.544-76.204z" style="fill:url(#j);fill-opacity:1;stroke:none;stroke-width:.264583px;stroke-linecap:butt;stroke-linejoin:miter;stroke-opacity:1"/></g></svg>