<?xml version="1.0" encoding="UTF-8" standalone="no"?>
<!-- Created with Inkscape (http://www.inkscape.org/) -->

<svg
   width="1024"
   height="1024"
   viewBox="0 0 270.93333 270.93333"
   version="1.1"
   id="svg5"
   xml:space="preserve"
   inkscape:version="1.3.2 (091e20ef0f, 2023-11-25)"
   sodipodi:docname="org.unmojang.FjordLauncher.Source.svg"
   inkscape:export-filename="fjord/fjordfoground.png"
   inkscape:export-xdpi="192"
   inkscape:export-ydpi="192"
   xmlns:inkscape="http://www.inkscape.org/namespaces/inkscape"
   xmlns:sodipodi="http://sodipodi.sourceforge.net/DTD/sodipodi-0.dtd"
   xmlns:xlink="http://www.w3.org/1999/xlink"
   xmlns="http://www.w3.org/2000/svg"
   xmlns:svg="http://www.w3.org/2000/svg"><sodipodi:namedview
     id="namedview7"
     pagecolor="#ffffff"
     bordercolor="#666666"
     borderopacity="1.0"
     inkscape:showpageshadow="2"
     inkscape:pageopacity="0.0"
     inkscape:pagecheckerboard="0"
     inkscape:deskcolor="#d1d1d1"
     inkscape:document-units="mm"
     showgrid="false"
     inkscape:zoom="0.64557566"
     inkscape:cx="438.36845"
     inkscape:cy="625.02356"
     inkscape:window-width="1353"
     inkscape:window-height="1056"
     inkscape:window-x="0"
     inkscape:window-y="0"
     inkscape:window-maximized="0"
     inkscape:current-layer="svg5" /><defs
     id="defs2"><inkscape:path-effect
       effect="fillet_chamfer"
       id="path-effect47"
       is_visible="true"
       lpeversion="1"
       nodesatellites_param="F,0,0,1,0,0,0,1 @ F,0,0,1,0,0,0,1 @ F,0,0,1,0,0,0,1 @ F,0,0,1,0,0,0,1 @ F,0,0,1,0,0,0,1 @ F,0,0,1,0,0,0,1 @ F,0,0,1,0,0,0,1"
       radius="0"
       unit="px"
       method="auto"
       mode="F"
       chamfer_steps="1"
       flexible="false"
       use_knot_distance="true"
       apply_no_radius="true"
       apply_with_radius="true"
       only_selected="false"
       hide_knots="false" /><inkscape:path-effect
       effect="fillet_chamfer"
       id="path-effect46"
       is_visible="true"
       lpeversion="1"
       nodesatellites_param="F,0,0,1,0,12.7,0,1 @ F,0,0,1,0,12.7,0,1 @ F,0,0,1,0,12.7,0,1 @ F,0,0,1,0,12.7,0,1 @ F,0,0,1,0,12.7,0,1 @ F,0,0,1,0,12.7,0,1"
       radius="48"
       unit="px"
       method="auto"
       mode="F"
       chamfer_steps="1"
       flexible="false"
       use_knot_distance="true"
       apply_no_radius="true"
       apply_with_radius="true"
       only_selected="false"
       hide_knots="false" /><inkscape:path-effect
       effect="fillet_chamfer"
       id="path-effect45"
       is_visible="true"
       lpeversion="1"
       nodesatellites_param="F,0,0,1,0,0,0,1 @ F,0,0,1,0,0,0,1 @ F,0,0,1,0,0,0,1 @ F,0,0,1,0,0,0,1"
       radius="0"
       unit="px"
       method="auto"
       mode="F"
       chamfer_steps="1"
       flexible="false"
       use_knot_distance="true"
       apply_no_radius="true"
       apply_with_radius="true"
       only_selected="false"
       hide_knots="false" /><inkscape:path-effect
       effect="fillet_chamfer"
       id="path-effect44"
       is_visible="true"
       lpeversion="1"
       nodesatellites_param="F,0,0,1,0,0,0,1 @ F,0,0,1,0,0,0,1 @ F,0,0,1,0,0,0,1 @ F,0,0,1,0,0,0,1 @ F,0,0,1,0,0,0,1"
       radius="0"
       unit="px"
       method="auto"
       mode="F"
       chamfer_steps="1"
       flexible="false"
       use_knot_distance="true"
       apply_no_radius="true"
       apply_with_radius="true"
       only_selected="false"
       hide_knots="false" /><inkscape:path-effect
       effect="fillet_chamfer"
       id="path-effect43"
       is_visible="true"
       lpeversion="1"
       nodesatellites_param="F,0,0,1,0,26.458333,0,1 @ F,0,0,1,0,26.458333,0,1 @ F,0,0,1,0,26.458333,0,1 @ F,0,0,1,0,26.458333,0,1 @ F,0,0,1,0,0,0,1 @ F,0,0,1,0,26.458333,0,1"
       radius="100"
       unit="px"
       method="auto"
       mode="F"
       chamfer_steps="1"
       flexible="false"
       use_knot_distance="true"
       apply_no_radius="true"
       apply_with_radius="true"
       only_selected="false"
       hide_knots="false" /><inkscape:path-effect
       effect="fillet_chamfer"
       id="path-effect42"
       is_visible="true"
       lpeversion="1"
       nodesatellites_param="F,0,0,1,0,0,0,1 @ F,0,0,1,0,0,0,1 @ F,0,0,1,0,0,0,1 @ F,0,0,1,0,0,0,1 @ F,0,0,1,0,0,0,1 @ F,0,0,1,0,0,0,1"
       radius="0"
       unit="px"
       method="auto"
       mode="F"
       chamfer_steps="1"
       flexible="false"
       use_knot_distance="true"
       apply_no_radius="true"
       apply_with_radius="true"
       only_selected="false"
       hide_knots="false" /><inkscape:path-effect
       effect="fillet_chamfer"
       id="path-effect41"
       is_visible="true"
       lpeversion="1"
       nodesatellites_param="F,0,0,1,0,0,0,1 @ F,0,0,1,0,0,0,1 @ F,0,0,1,0,0,0,1 @ F,0,0,1,0,0,0,1 @ F,0,0,1,0,0,0,1"
       radius="0"
       unit="px"
       method="auto"
       mode="F"
       chamfer_steps="1"
       flexible="false"
       use_knot_distance="true"
       apply_no_radius="true"
       apply_with_radius="true"
       only_selected="false"
       hide_knots="false" /><inkscape:path-effect
       effect="fillet_chamfer"
       id="path-effect40"
       is_visible="true"
       lpeversion="1"
       nodesatellites_param="F,0,0,1,0,0,0,1 @ F,0,0,1,0,0,0,1 @ F,0,0,1,0,0,0,1 @ F,0,0,1,0,0,0,1 @ F,0,0,1,0,0,0,1 @ F,0,0,1,0,0,0,1"
       radius="0"
       unit="px"
       method="auto"
       mode="F"
       chamfer_steps="1"
       flexible="false"
       use_knot_distance="true"
       apply_no_radius="true"
       apply_with_radius="true"
       only_selected="false"
       hide_knots="false" /><inkscape:path-effect
       effect="fillet_chamfer"
       id="path-effect39"
       is_visible="true"
       lpeversion="1"
       nodesatellites_param="F,0,0,1,0,0,0,1 @ F,0,0,1,0,0,0,1 @ F,0,0,1,0,0,0,1 @ F,0,0,1,0,0,0,1 @ F,0,0,1,0,19.408629,0,1 @ F,0,0,1,0,0,0,1 @ F,0,0,1,0,0,0,1"
       radius="0"
       unit="px"
       method="auto"
       mode="F"
       chamfer_steps="1"
       flexible="false"
       use_knot_distance="true"
       apply_no_radius="true"
       apply_with_radius="true"
       only_selected="false"
       hide_knots="false" /><inkscape:path-effect
       effect="fillet_chamfer"
       id="path-effect38"
       is_visible="true"
       lpeversion="1"
       nodesatellites_param="F,0,0,1,0,0,0,1 @ F,0,0,1,0,0,0,1 @ F,0,0,1,0,0,0,1 @ F,0,0,1,0,0,0,1 @ F,0,0,1,0,0,0,1 @ F,0,0,1,0,0,0,1 @ F,0,0,1,0,0,0,1"
       radius="0"
       unit="px"
       method="auto"
       mode="F"
       chamfer_steps="1"
       flexible="false"
       use_knot_distance="true"
       apply_no_radius="true"
       apply_with_radius="true"
       only_selected="false"
       hide_knots="false" /><linearGradient
       id="linearGradient26"
       inkscape:collect="always"><stop
         style="stop-color:#00b9e7;stop-opacity:1;"
         offset="0.13695651"
         id="stop25" /><stop
         style="stop-color:#146e8b;stop-opacity:1;"
         offset="1"
         id="stop26" /></linearGradient><linearGradient
       id="linearGradient8"
       inkscape:collect="always"><stop
         style="stop-color:#094a29;stop-opacity:1;"
         offset="0"
         id="stop9" /><stop
         style="stop-color:#137a4a;stop-opacity:1;"
         offset="1"
         id="stop10" /></linearGradient><linearGradient
       id="linearGradient5"
       inkscape:collect="always"><stop
         style="stop-color:#094a29;stop-opacity:1;"
         offset="0.54209745"
         id="stop6" /><stop
         style="stop-color:#137a4a;stop-opacity:1;"
         offset="0.98260868"
         id="stop8" /></linearGradient><inkscape:perspective
       sodipodi:type="inkscape:persp3d"
       inkscape:vp_x="-195.52928 : 112.88888 : 0"
       inkscape:vp_y="0 : 999.99999 : 0"
       inkscape:vp_z="140.9876 : 81.399227 : 0"
       inkscape:persp3d-origin="164.61013 : 91.238891 : 1"
       id="perspective22" /><linearGradient
       inkscape:collect="always"
       xlink:href="#linearGradient8"
       id="linearGradient10"
       x1="46.747211"
       y1="201.23958"
       x2="23.307659"
       y2="64.527458"
       gradientUnits="userSpaceOnUse" /><radialGradient
       inkscape:collect="always"
       xlink:href="#linearGradient5"
       id="radialGradient17"
       cx="149.52678"
       cy="185.52985"
       fx="149.52678"
       fy="185.52985"
       r="112.93989"
       gradientTransform="matrix(-1.3751118,-0.28998256,0.19048676,-0.90329778,299.04025,358.86705)"
       gradientUnits="userSpaceOnUse" /><linearGradient
       inkscape:collect="always"
       xlink:href="#linearGradient26"
       id="linearGradient25"
       x1="106.92046"
       y1="252.24748"
       x2="134.95892"
       y2="135.69524"
       gradientUnits="userSpaceOnUse" /><clipPath
       clipPathUnits="userSpaceOnUse"
       id="clipPath47"><use
         x="0"
         y="0"
         xlink:href="#g46"
         id="use47" /></clipPath><linearGradient
       inkscape:collect="always"
       xlink:href="#linearGradient23"
       id="linearGradient24"
       x1="192.82516"
       y1="186.66386"
       x2="60.806931"
       y2="49.446285"
       gradientUnits="userSpaceOnUse" /><linearGradient
       id="linearGradient23"
       inkscape:collect="always"><stop
         style="stop-color:#d7eef4;stop-opacity:0;"
         offset="0.13695651"
         id="stop24" /><stop
         style="stop-color:#d7eef4;stop-opacity:0.32810229;"
         offset="1"
         id="stop23" /></linearGradient></defs><g
     id="g47"
     clip-path="url(#clipPath47)"
     transform="matrix(1.07041,0,0,1.07041,-9.5382066,-9.5382066)"
     inkscape:label="group"><g
       inkscape:label="Clip"
       id="g46"><path
         style="fill:none;stroke:none;stroke-width:0.265;stroke-linecap:butt;stroke-linejoin:miter;stroke-dasharray:none;stroke-opacity:1"
         d="m 39.276311,25.931307 89.828649,-51.862614 a 21.997041,21.997041 179.99999 0 1 21.99704,-2e-6 l 89.82868,51.862608 a 21.997047,21.997047 59.999997 0 1 10.99852,19.05 l 1e-5,103.725231 a 21.997039,21.997039 120 0 1 -10.99852,19.05 l -89.82867,51.86258 a 21.997061,21.997061 179.99999 0 1 -21.99705,0 L 39.276292,167.75656 a 21.99703,21.99703 59.999992 0 1 -10.998523,-19.05 l 1.8e-5,-103.725251 A 21.997054,21.997054 120 0 1 39.276311,25.931307 Z"
         id="path45"
         inkscape:path-effect="#path-effect46"
         inkscape:original-d="M 28.277789,32.281309 140.10348,-32.281309 251.9292,32.281299 251.92921,161.40653 140.1035,225.96911 28.277767,161.40656 Z"
         transform="translate(-4.636822,38.622765)"
         inkscape:label="clip" /></g><path
       style="display:inline;fill:#c0e3ef;fill-opacity:1;stroke:none;stroke-width:0.264583px;stroke-linecap:butt;stroke-linejoin:miter;stroke-opacity:1"
       d="M 135.46666,6.3414576 247.29238,70.904065 247.29239,200.0293 135.46668,264.59188 23.640946,200.02933 23.640967,70.904073 135.46666,6.3414576"
       id="path4"
       inkscape:label="sky-hexagon"
       inkscape:path-effect="#path-effect47"
       inkscape:original-d="M 135.46666,6.3414576 247.29238,70.904065 247.29239,200.0293 135.46668,264.59188 23.640946,200.02933 23.640967,70.904073 135.46666,6.3414576" /><path
       style="display:inline;fill:url(#radialGradient17);stroke:none;stroke-width:0.264583px;stroke-linecap:butt;stroke-linejoin:miter;stroke-opacity:1"
       d="M 247.29238,71.772095 C 135.46666,6.3414576 23.640967,70.904073 23.640967,70.904073 l 1e-6,2e-6 111.825712,193.687805 114.05406,-63.69455 0.96335,-72.63679"
       id="path3"
       sodipodi:nodetypes="cccccc"
       inkscape:label="back-face"
       inkscape:transform-center-x="49.556022"
       inkscape:transform-center-y="19.416688" /><path
       style="display:inline;opacity:1;fill:url(#linearGradient25);fill-opacity:1;stroke:none;stroke-width:0.264583px;stroke-linecap:butt;stroke-linejoin:miter;stroke-opacity:1"
       d="m 135.46668,264.59188 c 0,0 51.66278,-39.92584 69.27008,-94.69866 8.91543,-27.73414 -40.45821,-68.00362 -83.33229,-63.01401 -72.551007,8.44336 -97.763524,-3.91716 -97.763524,-3.91716 v 97.06728 z"
       id="path1"
       sodipodi:nodetypes="cssccc"
       inkscape:label="water" /><path
       id="path8932"
       style="display:inline;mix-blend-mode:normal;fill:#ffffff;stroke-width:0.0372549"
       d="m 135.06162,62.147052 c -4.6759,0.06031 -7.35816,0.636259 -12.46186,2.675667 -8.86535,3.54254 -16.93953,11.913519 -21.57184,22.364441 -3.448219,7.779493 -5.293585,17.06716 -5.247075,26.40968 l 0.0092,1.85899 v 0 c 0.724021,8.28197 1.91971,16.14125 4.20176,23.19296 0.02102,-0.0137 -6.97e-4,-5.3e-4 0,0 0.01341,0.0135 0.217385,0.5779 0.453465,1.25408 3.18255,9.11482 8.66476,18.87046 14.84055,26.51125 6.88791,-3.54475 13.09495,-7.52358 17.97381,-12.4752 -3.66305,-4.33708 -7.36248,-10.12155 -9.8542,-15.49446 -1.33466,-2.87802 -3.27604,-7.96364 -3.41984,-8.95826 -6.9e-4,-0.009 -0.006,0.009 0,0 -2.16072,-7.45308 -2.71573,-15.18022 -2.07669,-22.05322 l 0.009,-0.0489 c -0.009,-0.1008 0.16527,-0.98641 0.32214,-1.92172 1.46061,-8.709769 5.01557,-15.308133 10.35724,-19.224331 1.09571,-0.803307 3.40564,-1.807845 4.97359,-2.162798 0.39696,-0.08989 1.2404,-0.134758 2.08438,-0.134824 0.84396,-5.2e-5 1.68863,0.04468 2.08826,0.134536 1.63785,0.368056 3.85369,1.332995 5.01991,2.185954 4.91633,3.59574 8.43158,9.765032 9.98782,17.399483 8.13291,1.56961 15.9818,4.38034 22.78109,7.8164 -0.085,-2.4202 -0.30899,-5.28866 -0.60881,-7.43184 -1.62233,-11.596017 -5.62047,-21.183105 -11.86196,-28.442326 -4.65327,-5.412075 -9.50033,-8.962923 -15.1663,-11.11095 -5.02548,-1.905213 -7.78668,-2.409656 -12.83425,-2.344539 z m -0.35993,43.639918 c -4.6419,0.045 -9.00869,0.40608 -13.29722,1.09224 -0.30751,7.73921 0.0949,15.10062 1.99264,21.78623 3.96329,-0.70282 7.9872,-1.06222 12.0069,-1.07709 4.02601,-0.0149 8.04808,0.31527 12.00036,0.99097 1.97168,0.3371 3.96436,0.7665 3.93717,0.84844 -5.2e-4,0.002 -0.0184,0.0627 -0.0205,0.0695 7.4808,1.87301 14.38572,5.21637 19.97921,9.19107 l -0.006,0.0483 c 0.0438,-0.10252 0.0723,-0.13491 0.10368,-0.10777 0.0336,0.0293 0.34658,0.27638 0.6949,0.54908 7.03394,5.50766 11.23119,11.88339 12.24625,18.6022 0.28723,1.90122 -0.0508,4.98034 -0.71301,6.49166 -1.05035,2.39736 -2.33588,3.90564 -4.7158,5.53394 -1.9399,1.32724 -5.06721,2.3016 -8.47538,2.64032 -3.53593,0.35142 -7.70219,-0.1378 -11.92167,-1.39959 -0.36402,-0.10882 -0.78069,-0.24201 -1.21489,-0.38665 -5.42873,6.25364 -11.80378,11.64092 -18.20693,15.81665 2.65182,1.42151 5.77765,2.86067 8.48755,3.87154 6.63575,2.47528 12.35628,3.71086 18.45997,3.98706 9.94747,0.4501 20.44984,-2.55765 26.78624,-7.67121 3.31418,-2.67463 4.47639,-3.7756 6.06224,-5.74331 1.10974,-1.37695 1.62413,-2.17008 3.42017,-5.27171 2.00044,-3.45474 3.30298,-7.89109 3.81836,-13.0053 0.44996,-4.46494 -0.0296,-8.85692 -1.51659,-13.89263 -0.25719,-0.87083 -0.47634,-1.61699 -0.48704,-1.65797 -0.24034,-0.91977 -1.54701,-4.10194 -2.37096,-5.77447 -3.91584,-7.94874 -10.72442,-15.60027 -19.14505,-21.51484 -2.03091,-1.42645 -4.74375,-3.10298 -9.68319,-5.54011 -4.93941,-2.43712 -12.33254,-5.28719 -15.96311,-6.02375 -3.63056,-0.73658 -3.90367,-0.79486 -4.22128,-0.8638 -3.4564,-0.75039 -9.28615,-1.40692 -13.69125,-1.54184 -0.78838,-0.0242 -1.56786,-0.0398 -2.3392,-0.0472 -0.67493,-0.006 -1.34377,-0.006 -2.0069,0 z m -42.35733,11.65349 c -7.068147,4.32792 -13.69569,10.26389 -18.181987,16.35238 -6.817393,9.25205 -10.115532,20.35221 -8.8555,29.80401 0.827949,6.21068 2.119154,9.77478 5.403573,14.91478 2.987119,4.67472 8.355144,9.26751 13.878965,11.87475 4.830793,2.28011 11.249824,3.77535 16.998589,3.95974 10.67998,0.34253 22.87575,-3.07274 33.0825,-9.26443 0.52251,-0.31697 0.96153,-0.58267 0.97582,-0.59066 0.002,-7.1e-4 0.0424,0.0245 0.0514,0.0276 6.85612,-4.72908 13.0507,-9.69798 18.04359,-15.18887 l -0.1125,-0.0502 0.27292,-0.30794 c 6.44865,-7.27984 12.62371,-17.6044 16.20241,-26.93295 -6.54186,-4.15178 -13.1122,-7.50244 -19.84676,-9.22463 -2.79259,7.84558 -8.02579,16.62566 -13.69129,22.81048 -0.30031,0.32785 -0.62916,0.67676 -0.73083,0.77538 l -2.91327,2.97584 c -2.72827,2.79679 -8.98552,7.07796 -15.2399,9.90652 0.0137,0.0179 0,-0.003 0,0 0,0.0262 -0.7791,0.34291 -1.82546,0.74151 -3.52004,1.34093 -7.44177,2.23735 -10.74805,2.4571 -3.94914,0.26248 -7.634957,-0.30459 -10.889124,-1.67577 -1.361607,-0.57374 -2.789607,-1.57771 -4.212155,-2.96076 -0.803254,-0.78095 -1.785178,-2.31484 -2.368,-3.69958 -0.471064,-1.11919 -0.893186,-4.09616 -0.767061,-5.41071 0.601301,-6.26734 4.073245,-12.29725 10.160966,-17.69199 -2.726947,-7.80836 -4.240475,-15.99779 -4.688789,-23.60162 z"
       sodipodi:nodetypes="csscccccscccsccccssssscccssscscssscccscssssscccssssssccccccssscsssssssccccccsccccssssssccsss"
       inkscape:label="trefoil" /><path
       style="display:inline;mix-blend-mode:hard-light;fill:url(#linearGradient24);fill-opacity:1;stroke:none;stroke-width:0.264583px;stroke-linecap:butt;stroke-linejoin:miter;stroke-opacity:1"
       d="M 23.640947,200.02929 23.640969,70.904076 135.46666,6.3414576 249.52073,71.772095 l 1e-5,129.125235 -114.05406,63.69455 -111.825733,-64.56255"
       id="path23"
       inkscape:label="fog" /><path
       style="fill:url(#linearGradient10);fill-opacity:1;stroke:none;stroke-width:0.264583px;stroke-linecap:butt;stroke-linejoin:miter;stroke-opacity:1"
       d="m 23.640946,200.02929 c 0,0 33.771353,-15.00232 43.543672,-52.9216 0,0 -8.31063,-42.97371 -43.54365,-76.203615 z"
       id="path2"
       sodipodi:nodetypes="cccc"
       inkscape:label="left-face" /></g></svg>
